<svg role="img" viewBox="0 0 24 24" xmlns="http://www.w3.org/2000/svg">
  <path d="M12 0C5.37 0 0 5.37 0 12c0 5.303 3.438 9.8 8.205 11.387.6.11.82-.258.82-.577v-2.167c-3.338.726-4.033-1.416-4.033-1.416-.546-1.387-1.334-1.757-1.334-1.757-1.09-.745.083-.729.083-.729 1.205.084 1.84 1.237 1.84 1.237 1.07 1.834 2.807 1.305 3.492.997.11-.775.42-1.306.763-1.606-2.665-.307-5.466-1.333-5.466-5.93 0-1.31.467-2.38 1.235-3.22-.123-.308-.535-1.542.117-3.215 0 0 1.008-.322 3.301 1.23A11.52 11.52 0 0 1 12 6.844a11.503 11.503 0 0 1 3.003.403c2.292-1.553 3.3-1.23 3.3-1.23.653 1.673.24 2.907.118 3.215.77.84 1.235 1.91 1.235 3.22 0 4.61-2.807 5.62-5.479 5.92.43.37.823 1.103.823 2.222v3.293c0 .322.218.694.824.577C20.565 21.795 24 17.298 24 12 24 5.37 18.63 0 12 0z"/>
</svg>
