<?xml version="1.0" encoding="UTF-8"?>
<svg version="1.1" viewBox="0 0 900 900" width="5000" height="1280" xmlns="http://www.w3.org/2000/svg">
<path transform="translate(0)" d="m0 0h900v900h-900z" fill="#FBFBFB"/>
<path transform="translate(131,177)" d="m0 0h637v12l-13 144-10 113-10 111-10 113-10 111-3 41-1 5-18 6-66 18-61 17-65 18-38 11-9 3h-8l-19-6-44-12-42-12-58-16-47-13-36-10-10-4-2-6-6-71-8-88-21-236-18-201-4-43z" fill="#E65629"/>
<path transform="translate(250,310)" d="m0 0h399l1 2-5 56-2 21-1 1-304 1 3 35 3 38v7h290l1 1v10l-11 121-7 78-3 34-1 2-35 10-48 13-79 22-10-2-36-10-86-24-31-9-2-1-1-3-10-113v-8l5-1h74l2 5 5 58 28 8 34 9 21 6h9l35-9 44-12 6-2 3-32 5-57 1-13-274-1-2-2-3-27-16-176-3-35z" fill="#FBFBFB"/>
<path transform="translate(456)" d="m0 0h136v121h-40l-1-58-8 13-11 17-6 10-4-1-19-29-6-10-1 58h-40z" fill="#020000"/>
<path transform="translate(191)" d="m0 0h117l1 23v20l-1 78h-40v-40h-36l-1 40h-40z" fill="#020000"/>
<path transform="translate(327)" d="m0 0h111v40l-35 1-1 80h-40v-81h-35l-1-4z" fill="#030100"/>
<path transform="translate(613)" d="m0 0h40v81h57l1 2-1 38h-97z" fill="#020000"/>
<path transform="translate(231)" d="m0 0h37v39l-1 1h-36z" fill="#FBFBFB"/>
<path transform="translate(499)" d="m0 0h51l-2 5-21 35-1 2-4-2-15-25-8-13z" fill="#FBFBFB"/>
</svg>
